<svg t="1712657552028" class="icon" viewBox="0 0 1300 1024" version="1.1" xmlns="http://www.w3.org/2000/svg" p-id="5512" width="200" height="200"><path d="M783.976647 99.208375l10.894532 18.426122-21.298635-2.557238-14.187413 16.131614-4.098586-21.018389-19.70474-8.494933 18.741398-10.509195 2.049293-21.35118 15.763792 14.590265 21.018389-4.659076-9.17803 19.44201z m283.117707 543.167732l-18.426121 10.912047 2.557237-21.298634-16.079068-14.187413 21.01839-4.151132 8.494932-19.652195 10.509195 18.741398 21.351181 1.996747-14.590266 15.763792 4.659077 21.018389-19.459526-9.002876z" fill="#21C4AB" p-id="5513"></path><path d="M1067.164416 642.376107l-18.426122 10.894532 2.557238-21.298635-16.079068-14.187413 21.018389-4.151132 8.494933-19.652194 10.509194 18.741397 21.351181 1.996747-14.590265 15.763793 4.659076 21.018389-19.459526-9.002877zM571.901097 100.031595l-17.410233-12.540972 20.52796-6.200425 6.498186-20.422869 12.260727 17.602902 21.456273-0.157638-12.943825 17.094957 6.725884 20.387837-20.26523-7.006129-17.252595 12.69861 0.402853-21.456273zM991.393121 784.390359l-21.193542 3.503065 10.141373-18.88152-9.826098-19.091704 21.01839 3.78331 15.09821-15.255847 2.925059 21.246088 19.14425 9.615914-19.266857 9.370698-3.22282 21.193543-14.852995-15.466032zM428.047735 156.798762l-20.79069-5.254597 16.884773-13.259101-1.331165-21.403726 17.76054 11.927936 19.96747-7.881896-5.885149 20.633052 13.661953 16.534466-21.403727 0.823221-11.525084 18.075815zM854.24813 896.435891l-20.738145-5.254598 16.849743-13.2591-1.331165-21.403727 17.813085 11.980482 19.914924-7.934442-5.832603 20.633052 13.661953 16.534467-21.456272 0.82322-11.525084 18.075815z m-291.787793 27.183784l10.894532 18.426121-21.298635-2.557237-14.187413 16.079068-4.151132-21.01839-19.652194-8.494932 18.741397-10.509195 1.996747-21.351181 15.763792 14.590266 21.01839-4.659077-9.002877 19.459526z m-319.654675-502.882486l-18.478667 10.947078 2.557237-21.298635-16.079068-14.222443 21.01839-4.098586 8.494932-19.70474 10.509195 18.741397 21.351181 2.049293-14.590266 15.763792 4.711623 21.01839-19.459526-9.055423z" fill="#21C4AB" p-id="5514"></path><path d="M242.805662 420.719674l-18.478667 10.947078 2.557237-21.298635-16.079068-14.222444 21.01839-4.098586 8.494932-19.70474 10.509195 18.741398 21.351181 2.049293-14.590266 15.763792 4.711623 21.018389-19.459526-9.055423z m457.990709 523.147716l-17.410233-12.488427 20.475414-6.252971 6.550732-20.422868 12.260727 17.602901 21.456273-0.105092-12.943825 17.094957 6.760915 20.317777-20.265231-7.00613-17.30514 12.69861zM303.566323 278.810514l-21.193542 3.503065 10.141372-18.88152-9.826097-19.039158 21.01839 3.78331 15.09821-15.255848 2.925059 21.246089 19.14425 9.615913-19.266857 9.318153-3.22282 21.246089-14.852995-15.466032z" fill="#21C4AB" p-id="5515"></path><path d="M407.624867 90.608351a486.926025 486.926025 0 0 1 504.441349 11.770298l25.081945-14.432628A511.885362 511.885362 0 0 0 139.622885 547.530624l25.029399-14.380081a486.750871 486.750871 0 0 1 242.937552-442.524677z m485.577345 842.732329a486.926025 486.926025 0 0 1-504.44135-11.61266l-24.976853 14.380081a511.885362 511.885362 0 0 0 797.490246-459.532057l-24.784184 14.380082a486.926025 486.926025 0 0 1-243.200283 442.384554z" fill="#21C4AB" p-id="5516"></path><path d="M813.910337 795.845381a326.590743 326.590743 0 0 1-258.140854 29.530838l-29.776052 17.200049A353.214036 353.214036 0 0 0 998.714527 570.125393l-29.776052 17.147503a326.835958 326.835958 0 0 1-155.010623 208.537455zM486.864196 228.103649a326.590743 326.590743 0 0 1 258.140854-29.530837l29.776052-17.200049a353.214036 353.214036 0 0 0-472.756127 272.433359l29.776052-17.147503a326.485651 326.485651 0 0 1 154.993107-208.537455z m801.413678 146.603267a53.439255 53.439255 0 0 1-14.380082 11.980482l-1044.263654 601.931646a53.807077 53.807077 0 0 1-73.406725-19.757286L7.224546 710.668358a53.701985 53.701985 0 0 1 19.70474-73.406726L1071.45567 35.329986a53.807077 53.807077 0 0 1 73.406726 19.757286l148.880259 258.193401a53.9472 53.9472 0 0 1-5.377205 61.426243zM32.201399 665.724035a28.024519 28.024519 0 0 0-2.819967 32.14062l148.880259 258.193401a28.147127 28.147127 0 0 0 38.446138 10.246465l1044.456322-601.774009a28.147127 28.147127 0 0 0 10.246465-38.446137L1122.635449 67.838429a28.024519 28.024519 0 0 0-38.393592-10.246465L39.732988 659.453549a27.131238 27.131238 0 0 0-7.531589 6.288001z" fill="#21C4AB" p-id="5517"></path><path d="M244.119312 712.087099l63.282867-36.536967-11.980482-20.75566 15.028149-8.670085 11.980482 20.755659 63.528082-36.694605 54.507691 94.4076-14.239959 8.232202-5.254598-9.107968-49.148001 28.374826 24.27624 42.036779-15.028148 8.670085-24.241209-41.984233-49.095455 28.339795 5.254597 9.107969-14.239959 8.232203z m-40.320278-30.319027l84.161135-48.58751q-9.528337-5.167021-20.79069-10.246465l8.722631-15.588639q13.679469 5.464781 24.871761 11.069685l-5.885149 10.859501 85.124478-49.148001 20.79069 36.011508-15.028148 8.670085-12.786187-22.156885-146.165384 84.388834 12.786187 22.156885-15.010633 8.670086z m160.265221 56.90729l49.305638-28.462403-13.136493-22.769922-49.288124 28.479918z m-64.106089 37.027396l48.955333-28.269734-13.136494-22.769922-49.095455 28.374826z m79.729758-123.833345L330.36477 680.296785l13.013886 22.524707 49.288124-28.462402z m-100.432871 87.996991l48.972847-28.269734-13.013886-22.524708-49.095455 28.357311z m262.834961-95.511065a279.50955 279.50955 0 0 0 37.167519-84.161135q-17.760539 12.821218-32.946326 23.890903a80.307763 80.307763 0 0 0-11.735267 10.369072l-15.238333-9.931189a43.42049 43.42049 0 0 0 6.550732-17.129988 340.270212 340.270212 0 0 0 4.133616-47.571621l-36.607028 21.123481-7.986988-13.872137 59.149251-34.154883q-14.677842-7.181283-26.745901-12.540972l7.951958-15.115726q12.558488 4.86926 29.723506 12.348304l-6.305517 12.628549 58.921552-34.01476 8.004503 13.854622-68.169643 39.356934q-1.734017 29.495807-5.850119 57.047412 20.562991-13.416739 41.51132-27.306391a219.60714 219.60714 0 0 0 2.452145-40.19767l18.443637-0.525459a286.463134 286.463134 0 0 1-44.734139 151.34992q-8.827724-2.854998-17.760539-5.39472z m-71.427494 16.832227a254.602759 254.602759 0 0 0-11.455022-86.403097l-27.53409 15.8864-7.776804-13.4868 27.726758-16.009007-22.121855-38.306015 14.432628-8.337294 22.121855 38.306015 21.946702-12.66358 7.794319 13.4868-21.946702 12.66358 19.617164 33.979729 2.276992-9.808581q18.35606 3.275366 34.943073 7.549104l-4.151132 15.483547q-15.325909-4.764168-30.073813-8.057049l57.152505 98.9791-14.432628 8.337294-58.921552-102.044281a218.503675 218.503675 0 0 1 6.305517 63.878389 196.784672 196.784672 0 0 0-15.956461-13.399224z m99.031646 17.813085a281.226052 281.226052 0 0 0 56.15413-153.101453l18.215938 1.296134a334.385062 334.385062 0 0 1-11.419992 63.843359q32.613534 5.324659 62.091826 11.419991l-4.518954 19.284373q-28.462403-7.444013-62.407101-14.80045a296.534446 296.534446 0 0 1-40.530461 78.924053q-6.725885-3.117728-17.585386-6.866007z m216.524443-150.439123l-13.661953 7.881896-62.582255-108.41986 46.41561-26.798446q-18.723882 0.928312-38.411107 2.417114l2.557237-13.802075q19.389464-1.453772 36.484422-2.452146l23.908418-37.815586-90.309014 52.143122-7.111222-12.313274 115.72375-66.820963 7.461528 12.908794-32.560988 51.004626 8.494932-0.402853 41.301136-23.855872 50.268981 87.051163q12.66358 21.929186-7.549105 33.611908-10.018766 5.780057-22.104339 11.997998a145.184526 145.184526 0 0 0-11.455023-13.171524 222.251954 222.251954 0 0 0 21.648942-10.684348q10.404103-6.007756 4.624045-16.026522l-5.42975-9.423245-36.799697 21.228573 17.340171 30.038782-13.661953 7.881896-17.340172-30.038782-36.204176 20.913298z m8.249718 9.388214l48.394842-26.903539 63.265352-38.533714q1.541349 7.56662 3.362942 18.268483L846.015927 527.948491l-46.590763 25.32716a57.20505 57.20505 0 0 1-58.763915 3.923432 334.139848 334.139848 0 0 0-8.232202 39.11172l-17.165018-11.367445q7.53159-26.308018 11.034654-37.833102l-37.430249-64.789185-22.910044 13.241585-8.197172-14.204928 37.745524-21.789064 47.501561 82.26948a50.794441 50.794441 0 0 0 51.424993-3.888402z m-151.717742-134.254964q16.70962 6.270486 47.991989 20.843237l-8.109595 17.515324q-29.705991-15.448516-47.396469-22.945075z m174.662817-21.228573l-36.782182 21.246089 11.122231 19.266857 36.782182-21.246089z m-7.426498 72.075561l36.782182-21.228574-11.122231-19.266857-36.782182 21.246089z m-68.117097-2.784937l36.221691-20.895782-11.122231-19.266857-36.221691 20.913297z m18.233453 31.58013l36.221691-20.895782-11.122231-19.266857-36.221691 20.913298z m153.083937-190.846977l82.602271-47.694229-21.246089-36.782181 15.588639-9.002877 21.246089 36.782181 33.138994-19.126734 8.127111 14.064806-33.138995 19.126734 46.152881 79.922426q14.345051 24.83673-9.528337 38.621291-12.523457 7.233829-29.390714 16.70962-5.342174-7.04116-12.891279-15.676216 16.289252-7.373952 29.565868-15.063179 11.945451-6.883523 3.958463-20.247715l-43.45552-75.26335-82.619787 47.694229z m99.399467 117.492798l52.370821-28.952832 57.397719-35.731262q1.173527 9.580883 2.609783 18.723882l-55.978977 33.349178-49.971222 27.306391a65.752529 65.752529 0 0 1-61.373697 6.200425 261.643919 261.643919 0 0 0-8.337295 37.185034l-17.392717-11.507568q7.04116-22.261978 11.525084-34.750404l-38.218439-66.190412-22.332039 12.908795-8.004503-13.872138 37.150004-21.456272 48.167142 83.425491a60.95333 60.95333 0 0 0 52.388336-6.655823z m-70.359059-84.96684l6.725885-15.448516q36.449391 14.660327 56.504437 23.610657l-7.619166 17.480294q-29.653445-14.940572-55.611156-25.642435z m-87.016133-47.098708q21.158512 7.30389 48.394842 19.809832a161.8416 161.8416 0 0 0-8.302263 17.129988q-25.187037-12.92631-46.853494-22.016763z" fill="#21C4AB" p-id="5518"></path></svg>