<svg t="1712824160585" class="icon" viewBox="0 0 1024 1024" version="1.1" xmlns="http://www.w3.org/2000/svg" p-id="4352" width="200" height="200"><path d="M773.3 760l105.2-105.3-45.2-45.2L728 714.7 614.6 601.4l-45.2 45.2L682.7 760 577.5 865.3l45.2 45.2L728 805.3l113.4 113.3 45.2-45.2z" fill="#CCCCCC" p-id="4353"></path><path d="M520.2 895.5H227.4V864h275.4c-9.5-20.6-16.3-42.6-19.9-65.8H191.5v-27s0.3-3.4 1-4.8c2.2-4.7 7.7-8.9 16-12 12.7-2.1 60.7-11 112.3-30.1 85-31.5 136.6-74.4 153.4-127.4 0.8-2.5 1.3-5 1.4-7.5 0.2-3.2 5.1-78.6-1.1-129.9-1.4-11.7-9.1-21.6-20-25.9-60.9-24-100.2-81.8-100.2-147.3 0-87.2 70.9-158.1 158.1-158.1s158.1 70.9 158.1 158.1c0 66.4-41.9 126.1-104.3 148.8-9.9 3.6-17.4 11.8-20.1 22l-3.6 13.8c-0.4 1.4-0.6 2.8-0.8 4.2-5.5 45.9 3.4 98.4 6.5 114.2 16.9-17.8 36.4-33 57.9-45.2-1.8-16.8-3-37-1.4-55.7 35.4-16.1 65.7-41.2 88.6-73.2 27-37.8 41.2-82.4 41.2-128.9C734.6 163.7 634.9 64 512.4 64s-222.1 99.7-222.1 222.1c0 45.5 13.7 89.2 39.5 126.5 21.3 30.8 49.7 55.4 82.8 72.1 2.4 37.1 0.2 82.3-0.6 96.1-11.9 30.9-51.6 60.3-112.5 83-53 19.8-103.4 27.7-103.9 27.7-1.9 0.3-3.7 0.7-5.5 1.3-33.5 11.4-48.8 31.5-55.7 46.4-6.7 14.5-7.2 27.1-6.9 32.8v58.1c0 17.7 14.3 32 32 32h3.9v63.2c0 18.8 15.3 34 34 34h383.2c-23.7-17.4-44.2-39.1-60.4-63.8z" fill="#CCCCCC" p-id="4354"></path></svg>