<svg t="1712657473885" class="icon" viewBox="0 0 1300 1024" version="1.1" xmlns="http://www.w3.org/2000/svg" p-id="5364" width="200" height="200"><path d="M783.976647 99.208375l10.894532 18.426122-21.298635-2.557238-14.187413 16.131614-4.098586-21.018389-19.70474-8.494933 18.741398-10.509195 2.049293-21.35118 15.763792 14.590265 21.018389-4.659076-9.17803 19.44201z m283.117707 543.167732l-18.426121 10.912047 2.557237-21.298634-16.079068-14.187413 21.01839-4.151132 8.494932-19.652195 10.509195 18.741398 21.351181 1.996747-14.590266 15.763792 4.659077 21.018389-19.459526-9.002876z" fill="#1B65B9" p-id="5365"></path><path d="M1067.164416 642.376107l-18.426122 10.894532 2.557238-21.298635-16.079068-14.187413 21.018389-4.151132 8.494933-19.652194 10.509194 18.741397 21.351181 1.996747-14.590265 15.763793 4.659076 21.018389-19.459526-9.002877zM571.901097 100.031595l-17.410233-12.540972 20.52796-6.200425 6.498186-20.422869 12.260727 17.602902 21.456273-0.157638-12.943825 17.094957 6.725884 20.387837-20.26523-7.006129-17.252595 12.69861 0.402853-21.456273zM991.393121 784.390359l-21.193542 3.503065 10.141373-18.88152-9.826098-19.091704 21.01839 3.78331 15.09821-15.255847 2.925059 21.246088 19.14425 9.615914-19.266857 9.370698-3.22282 21.193543-14.852995-15.466032zM428.047735 156.798762l-20.79069-5.254597 16.884773-13.259101-1.331165-21.403726 17.76054 11.927936 19.96747-7.881896-5.885149 20.633052 13.661953 16.534466-21.403727 0.823221-11.525084 18.075815zM854.24813 896.435891l-20.738145-5.254598 16.849743-13.2591-1.331165-21.403727 17.813085 11.980482 19.914924-7.934442-5.832603 20.633052 13.661953 16.534467-21.456272 0.82322-11.525084 18.075815z m-291.787793 27.183784l10.894532 18.426121-21.298635-2.557237-14.187413 16.079068-4.151132-21.01839-19.652194-8.494932 18.741397-10.509195 1.996747-21.351181 15.763792 14.590266 21.01839-4.659077-9.002877 19.459526z m-319.654675-502.882486l-18.478667 10.947078 2.557237-21.298635-16.079068-14.222443 21.01839-4.098586 8.494932-19.70474 10.509195 18.741397 21.351181 2.049293-14.590266 15.763792 4.711623 21.01839-19.459526-9.055423z" fill="#1B65B9" p-id="5366"></path><path d="M242.805662 420.719674l-18.478667 10.947078 2.557237-21.298635-16.079068-14.222444 21.01839-4.098586 8.494932-19.70474 10.509195 18.741398 21.351181 2.049293-14.590266 15.763792 4.711623 21.018389-19.459526-9.055423z m457.990709 523.147716l-17.410233-12.488427 20.475414-6.252971 6.550732-20.422868 12.260727 17.602901 21.456273-0.105092-12.943825 17.094957 6.760915 20.317777-20.265231-7.00613-17.30514 12.69861zM303.566323 278.810514l-21.193542 3.503065 10.141372-18.88152-9.826097-19.039158 21.01839 3.78331 15.09821-15.255848 2.925059 21.246089 19.14425 9.615913-19.266857 9.318153-3.22282 21.246089-14.852995-15.466032z" fill="#1B65B9" p-id="5367"></path><path d="M407.624867 90.608351a486.926025 486.926025 0 0 1 504.441349 11.770298l25.081945-14.432628A511.885362 511.885362 0 0 0 139.622885 547.530624l25.029399-14.380081a486.750871 486.750871 0 0 1 242.937552-442.524677z m485.577345 842.732329a486.926025 486.926025 0 0 1-504.44135-11.61266l-24.976853 14.380081a511.885362 511.885362 0 0 0 797.490246-459.532057l-24.784184 14.380082a486.926025 486.926025 0 0 1-243.200283 442.384554z" fill="#1B65B9" p-id="5368"></path><path d="M813.910337 795.845381a326.590743 326.590743 0 0 1-258.140854 29.530838l-29.776052 17.200049A353.214036 353.214036 0 0 0 998.714527 570.125393l-29.776052 17.147503a326.835958 326.835958 0 0 1-155.010623 208.537455zM486.864196 228.103649a326.590743 326.590743 0 0 1 258.140854-29.530837l29.776052-17.200049a353.214036 353.214036 0 0 0-472.756127 272.433359l29.776052-17.147503a326.485651 326.485651 0 0 1 154.993107-208.537455z m801.413678 146.603267a53.439255 53.439255 0 0 1-14.380082 11.980482l-1044.263654 601.931646a53.807077 53.807077 0 0 1-73.406725-19.757286L7.224546 710.668358a53.701985 53.701985 0 0 1 19.70474-73.406726L1071.45567 35.329986a53.807077 53.807077 0 0 1 73.406726 19.757286l148.880259 258.193401a53.9472 53.9472 0 0 1-5.377205 61.426243zM32.201399 665.724035a28.024519 28.024519 0 0 0-2.819967 32.14062l148.880259 258.193401a28.147127 28.147127 0 0 0 38.446138 10.246465l1044.456322-601.774009a28.147127 28.147127 0 0 0 10.246465-38.446137L1122.635449 67.838429a28.024519 28.024519 0 0 0-38.393592-10.246465L39.732988 659.453549a27.131238 27.131238 0 0 0-7.531589 6.288001z" fill="#1B65B9" p-id="5369"></path><path d="M392.684295 644.040063l57.642933-33.279117-16.009006-27.726759-49.095455 28.339795-7.671712-13.276616 49.095454-28.35731-15.553608-26.956085 15.343425-8.862754 15.553608 26.9736 49.498307-28.58501 7.671712 13.276616-49.498307 28.58501 16.009007 27.726759 57.20505-33.033902 7.794319 13.4868-130.173892 75.158258z m22.174401 37.517825l85.877637-49.568368-10.544226-18.285999 15.413486-8.897785 10.561741 18.285999 30.021266-17.340172 7.79432 13.4868-30.038782 17.340172 26.010257 45.049415q13.136493 22.752407-10.929563 36.642059-11.174777 6.445639-30.354057 17.27011-5.149505-6.270486-12.365819-14.415112 17.462779-8.284749 30.826971-15.991492 11.910421-6.901038 4.378831-19.984985l-22.945075-39.724756-85.877637 49.585884z m-55.103211 42.86a301.070915 301.070915 0 0 0 10.544225-90.309014l17.497809-0.858251q-0.297761 19.96747-1.716501 37.955708l60.375324 104.566488-14.432628 8.35481-49.042909-84.949324a327.273841 327.273841 0 0 1-7.514074 36.817212q-7.30389-5.902664-15.711246-11.560114z m-34.435128-60.497932a219.904901 219.904901 0 0 0 15.063179-81.095953h18.215937a339.201777 339.201777 0 0 1-17.480294 90.221437q-7.356436-4.729138-15.781307-9.107968z m119.734759 37.938193l6.165394-15.098209q22.542223 7.00613 40.810706 14.187413l-6.883522 16.534466q-19.319403-8.582509-40.075063-15.606154z m127.021134-168.847729l63.300383-36.554482-11.997997-20.773175 15.010633-8.670086 11.980482 20.75566 63.545598-36.694606 54.50769 94.4076-14.239959 8.232203-5.254597-9.107969-49.148001 28.374826 24.258724 42.036779-15.010633 8.670086-24.241209-41.984233-49.11297 28.339795 5.254597 9.107969-14.239959 8.232202z m-40.320277-30.354057l84.143619-48.587511q-9.528337-5.167021-20.79069-10.246465l8.722631-15.588639q13.679469 5.464781 24.871761 11.069685l-5.867633 10.859502 85.106962-49.148001 20.79069 36.011507-15.010633 8.670086-12.786187-22.156886L554.736078 507.945991l12.786187 22.156885-15.010633 8.670086z m160.26522 56.907289l49.305639-28.462402-13.136494-22.769922-49.305639 28.479918z m-64.123604 37.027396l48.955333-28.269733-13.136494-22.769922-49.095455 28.374825z m79.729758-123.833345l-49.288123 28.444888 12.996371 22.524707 49.305638-28.462402z m-100.415356 87.996991l48.955332-28.269734-12.99637-22.524707-49.112971 28.35731z m262.817446-95.511065a279.50955 279.50955 0 0 0 37.167519-84.161135q-17.760539 12.821218-32.92881 23.890903a80.307763 80.307763 0 0 0-11.735268 10.369072l-15.238332-9.931189a43.42049 43.42049 0 0 0 6.533216-17.129987 340.270212 340.270212 0 0 0 4.08107-47.484045l-36.589513 21.123481-8.004503-13.872137 59.166767-34.154883q-14.677842-7.181283-26.763417-12.540972l7.951958-15.115726q12.558488 4.86926 29.723506 12.348304l-6.305517 12.646065 58.886521-34.014761 8.004504 13.872137-68.169644 39.356935q-1.716502 29.513322-5.832603 57.029897 20.580506-13.399223 41.511319-27.288876a219.60714 219.60714 0 0 0 2.452146-40.19767l18.461152-0.52546a286.463134 286.463134 0 0 1-44.664078 151.227313q-8.845239-2.854998-17.778054-5.39472z m-71.409978 16.832227a254.602759 254.602759 0 0 0-11.472538-86.403096l-27.53409 15.886399-7.776805-13.4868 27.726759-16.009007-22.121855-38.306015 14.432628-8.337294 22.121855 38.306015 21.964217-12.66358 7.776804 13.4868-21.946702 12.66358 19.617164 33.97973 2.294507-9.808582q18.338545 3.275366 34.925558 7.549105l-4.203678 15.536093q-15.343424-4.764168-30.091328-8.05705l57.152504 98.9791-14.432627 8.337294-58.921552-102.061796a218.503675 218.503675 0 0 1 6.305517 63.895904 196.784672 196.784672 0 0 0-15.8864-13.451769z m99.01413 17.813085a281.226052 281.226052 0 0 0 56.189161-153.101452l18.215938 1.296134a334.385062 334.385062 0 0 1-11.437507 63.843358q32.596019 5.324659 62.07431 11.419992l-4.518954 19.284372q-28.444887-7.444013-62.407101-14.800449a296.534446 296.534446 0 0 1-40.530461 78.924052q-6.708369-3.117728-17.585386-6.866007z" fill="#1B65B9" p-id="5370"></path></svg>