<svg t="1712657612721" class="icon" viewBox="0 0 1300 1024" version="1.1" xmlns="http://www.w3.org/2000/svg" p-id="5660" width="200" height="200"><path d="M783.976647 99.208375l10.894532 18.426122-21.298635-2.557238-14.187413 16.131614-4.098586-21.018389-19.70474-8.494933 18.741398-10.509195 2.049293-21.35118 15.763792 14.590265 21.018389-4.659076-9.17803 19.44201z m283.117707 543.167732l-18.426121 10.912047 2.557237-21.298634-16.079068-14.187413 21.01839-4.151132 8.494932-19.652195 10.509195 18.741398 21.351181 1.996747-14.590266 15.763792 4.659077 21.018389-19.459526-9.002876z" fill="#F56C6C" p-id="5661"></path><path d="M1067.164416 642.376107l-18.426122 10.894532 2.557238-21.298635-16.079068-14.187413 21.018389-4.151132 8.494933-19.652194 10.509194 18.741397 21.351181 1.996747-14.590265 15.763793 4.659076 21.018389-19.459526-9.002877zM571.901097 100.031595l-17.410233-12.540972 20.52796-6.200425 6.498186-20.422869 12.260727 17.602902 21.456273-0.157638-12.943825 17.094957 6.725884 20.387837-20.26523-7.006129-17.252595 12.69861 0.402853-21.456273zM991.393121 784.390359l-21.193542 3.503065 10.141373-18.88152-9.826098-19.091704 21.01839 3.78331 15.09821-15.255847 2.925059 21.246088 19.14425 9.615914-19.266857 9.370698-3.22282 21.193543-14.852995-15.466032zM428.047735 156.798762l-20.79069-5.254597 16.884773-13.259101-1.331165-21.403726 17.76054 11.927936 19.96747-7.881896-5.885149 20.633052 13.661953 16.534466-21.403727 0.823221-11.525084 18.075815zM854.24813 896.435891l-20.738145-5.254598 16.849743-13.2591-1.331165-21.403727 17.813085 11.980482 19.914924-7.934442-5.832603 20.633052 13.661953 16.534467-21.456272 0.82322-11.525084 18.075815z m-291.787793 27.183784l10.894532 18.426121-21.298635-2.557237-14.187413 16.079068-4.151132-21.01839-19.652194-8.494932 18.741397-10.509195 1.996747-21.351181 15.763792 14.590266 21.01839-4.659077-9.002877 19.459526z m-319.654675-502.882486l-18.478667 10.947078 2.557237-21.298635-16.079068-14.222443 21.01839-4.098586 8.494932-19.70474 10.509195 18.741397 21.351181 2.049293-14.590266 15.763792 4.711623 21.01839-19.459526-9.055423z" fill="#F56C6C" p-id="5662"></path><path d="M242.805662 420.719674l-18.478667 10.947078 2.557237-21.298635-16.079068-14.222444 21.01839-4.098586 8.494932-19.70474 10.509195 18.741398 21.351181 2.049293-14.590266 15.763792 4.711623 21.018389-19.459526-9.055423z m457.990709 523.147716l-17.410233-12.488427 20.475414-6.252971 6.550732-20.422868 12.260727 17.602901 21.456273-0.105092-12.943825 17.094957 6.760915 20.317777-20.265231-7.00613-17.30514 12.69861zM303.566323 278.810514l-21.193542 3.503065 10.141372-18.88152-9.826097-19.039158 21.01839 3.78331 15.09821-15.255848 2.925059 21.246089 19.14425 9.615913-19.266857 9.318153-3.22282 21.246089-14.852995-15.466032z" fill="#F56C6C" p-id="5663"></path><path d="M407.624867 90.608351a486.926025 486.926025 0 0 1 504.441349 11.770298l25.081945-14.432628A511.885362 511.885362 0 0 0 139.622885 547.530624l25.029399-14.380081a486.750871 486.750871 0 0 1 242.937552-442.524677z m485.577345 842.732329a486.926025 486.926025 0 0 1-504.44135-11.61266l-24.976853 14.380081a511.885362 511.885362 0 0 0 797.490246-459.532057l-24.784184 14.380082a486.926025 486.926025 0 0 1-243.200283 442.384554z" fill="#F56C6C" p-id="5664"></path><path d="M813.910337 795.845381a326.590743 326.590743 0 0 1-258.140854 29.530838l-29.776052 17.200049A353.214036 353.214036 0 0 0 998.714527 570.125393l-29.776052 17.147503a326.835958 326.835958 0 0 1-155.010623 208.537455zM486.864196 228.103649a326.590743 326.590743 0 0 1 258.140854-29.530837l29.776052-17.200049a353.214036 353.214036 0 0 0-472.756127 272.433359l29.776052-17.147503a326.485651 326.485651 0 0 1 154.993107-208.537455z m801.413678 146.603267a53.439255 53.439255 0 0 1-14.380082 11.980482l-1044.263654 601.931646a53.807077 53.807077 0 0 1-73.406725-19.757286L7.224546 710.668358a53.701985 53.701985 0 0 1 19.70474-73.406726L1071.45567 35.329986a53.807077 53.807077 0 0 1 73.406726 19.757286l148.880259 258.193401a53.9472 53.9472 0 0 1-5.377205 61.426243zM32.201399 665.724035a28.024519 28.024519 0 0 0-2.819967 32.14062l148.880259 258.193401a28.147127 28.147127 0 0 0 38.446138 10.246465l1044.456322-601.774009a28.147127 28.147127 0 0 0 10.246465-38.446137L1122.635449 67.838429a28.024519 28.024519 0 0 0-38.393592-10.246465L39.732988 659.453549a27.131238 27.131238 0 0 0-7.531589 6.288001z" fill="#F56C6C" p-id="5665"></path><path d="M243.331122 730.898558l63.282868-36.536967-11.980482-20.75566 15.028148-8.670086 11.980482 20.75566 63.528083-36.694605 54.50769 94.407599-14.239959 8.232203-5.254597-9.107969-49.148001 28.374826 24.27624 42.036779-15.028149 8.670086-24.241209-41.984233-49.095455 28.339795 5.254597 9.107969-14.239959 8.232202z m-40.320277-30.319027l84.161134-48.587511q-9.528337-5.167021-20.79069-10.246465l8.722632-15.588639q13.679469 5.464781 24.871761 11.069686l-5.885149 10.859501 85.124477-49.148001 20.790691 36.011507-15.028149 8.670086-12.786187-22.156886-146.165384 84.388834 12.786187 22.156886-15.010633 8.670086z m160.26522 56.907289l49.305639-28.462402-13.136494-22.769922-49.288123 28.479918z m-64.106088 37.027397l48.955332-28.269734-13.136493-22.769922-49.095455 28.374826z m79.729758-123.833345l-49.305639 28.444887 13.013886 22.524707 49.288123-28.462402z m-100.432872 87.996991l48.972848-28.269734-13.013886-22.524708-49.095455 28.357311z m262.834961-95.511066a279.50955 279.50955 0 0 0 37.167519-84.161134q-17.760539 12.821218-32.946325 23.890902a80.307763 80.307763 0 0 0-11.735268 10.369073l-15.238332-9.93119a43.42049 43.42049 0 0 0 6.550731-17.129987 340.270212 340.270212 0 0 0 4.133617-47.571622l-36.607029 21.123482-7.986988-13.872137 59.149252-34.154883q-14.677842-7.181283-26.745901-12.540973l7.951957-15.115725q12.558488 4.86926 29.723506 12.348304l-6.305517 12.628549 58.921552-34.01476 8.004504 13.854621-68.169644 39.356935q-1.734017 29.495807-5.850118 57.047412 20.562991-13.416739 41.511319-27.306391a219.60714 219.60714 0 0 0 2.452146-40.19767l18.443636-0.52546a286.463134 286.463134 0 0 1-44.734139 151.34992q-8.827724-2.854998-17.760539-5.39472z m-71.427493 16.832227a254.602759 254.602759 0 0 0-11.455023-86.403096l-27.53409 15.886399-7.776804-13.4868 27.726759-16.009006-22.121855-38.306015 14.432627-8.337295 22.121855 38.306015 21.946702-12.66358 7.79432 13.4868-21.946702 12.66358 19.617163 33.97973 2.276993-9.808582q18.35606 3.275366 34.943072 7.549105l-4.151132 15.483547q-15.325909-4.764168-30.073812-8.057049l57.152504 98.979099-14.432627 8.337295-58.921552-102.044282a218.503675 218.503675 0 0 1 6.305516 63.878389 196.784672 196.784672 0 0 0-15.95646-13.399223z m99.031645 17.813085a281.226052 281.226052 0 0 0 56.154131-153.101452l18.215937 1.296134a334.385062 334.385062 0 0 1-11.419991 63.843358q32.613534 5.324659 62.091826 11.419992l-4.518954 19.284372q-28.462403-7.444013-62.407102-14.800449a296.534446 296.534446 0 0 1-40.530461 78.924053q-6.725885-3.117728-17.585386-6.866008z m129.228065-296.709599l112.080562-64.701609 8.232203 14.239959-97.087444 56.049039 18.899035 32.736142 85.509815-49.375701 43.788311 75.841356-15.028148 8.687601-3.678218-6.358063-70.464151 40.688099 22.367069 38.726383 99.837351-57.625418 8.214687 14.239959-114.760407 66.260473z m-21.771548 135.305883q8.284749-7.619166 24.521454-24.066056l-24.83673-43.035153-26.202926 15.133241-7.881896-13.661953 26.202926-15.115725-21.806579-37.745525 15.028148-8.670086 21.789064 37.72801 23.873387-13.784561 7.881897 13.661953-23.873388 13.784561 22.4021 38.796444 20.387838-21.140997q5.780057 9.510821 9.143 14.940572-3.818341 3.888402-20.633053 21.666456l34.067307 58.991614q11.787813 20.422869-7.058676 31.807829l-20.790691 11.997998q-5.832603-7.408982-12.120604-14.327536 12.103089-5.709996 20.0025-10.26398 8.284749-4.781684 2.837483-14.222444l-29.355684-50.829472-22.10434 23.540597z m142.276982-124.008498l-70.464151 40.705614 24.346301 42.159387 70.464151-40.6881z m109.873631-76.261724a314.610261 314.610261 0 0 0 7.461528-89.555855l16.569497-5.972725q0.245215 11.997997 0.017516 23.610657l53.351679-30.79194 7.461528 12.891279q-2.504691 23.698234-5.149506 38.919051l37.272611-21.526334 40.022517 69.325655-13.872137 8.004503-4.553985-7.881896-76.90979 44.401348 22.244462 38.533714a12.085574 12.085574 0 0 0 18.61879 5.149506l58.536215-33.804577q13.872137-8.004503 10.421618-18.864005a218.941558 218.941558 0 0 0-12.278242-28.847739 182.89502 182.89502 0 0 0 18.040784-2.977605 256.722113 256.722113 0 0 1 11.490053 30.108843 24.749154 24.749154 0 0 1-14.432627 30.143873l-67.591638 39.024144a22.507192 22.507192 0 0 1-34.908042-8.862755l-54.297506-94.057293q-1.453772 7.53159-3.047667 14.730388a87.471531 87.471531 0 0 0-14.467658-11.700237z m-7.671712 69.395716q20.107593-14.187413 36.44939-27.113722 4.028525 8.722632 6.217941 13.854622-20.965844 15.711246-50.461651 38.88402l-11.157261-12.295758a153.136483 153.136483 0 0 0 5.885149-56.486921q-16.779681 11.209808-27.148754 18.61879l-11.192292-10.509195a387.333889 387.333889 0 0 0-4.729138-80.693101l18.110846-3.275365a696.724583 696.724583 0 0 1 2.312023 73.371694q7.233829-4.168647 22.419615-13.451769-0.507944-16.009007-1.611409-35.468532l17.165018-1.436257q0.805705 54.174899-2.276993 95.983979z m75.140742-148.670075l-44.086072 25.467282q-1.103465 19.652194-3.730764 37.570371l43.438005-25.064429q2.399599-15.378455 4.378831-37.973224z m43.245337 28.199673l-31.58013 18.215937 20.142623 34.890527 31.58013-18.215938z m-56.679591 79.239328l31.580131-18.233453-20.142624-34.890526-31.597645 18.250968z m-56.977351 100.117596q27.936943-24.101087 56.049039-50.076313 5.342174 11.069685 7.549105 14.888026-31.404977 27.884397-51.179778 47.011131z" fill="#F56C6C" p-id="5666"></path></svg>